<svg width="380" height="110" xmlns="http://www.w3.org/2000/svg" xmlns:xlink="http://www.w3.org/1999/xlink" xml:space="preserve" overflow="hidden"><defs><clipPath id="clip0"><rect x="0" y="0" width="380" height="110"/></clipPath></defs><g clip-path="url(#clip0)"><path d="M150 0 336.667 0 336.667 30 150 30Z" transform="matrix(1.00088 0 0 1 -47.602 0)"/><path d="M152 2 334.667 2 334.667 27 152 27Z" fill="#BDECB6" transform="matrix(1.00088 0 0 1 -47.602 0)"/><text font-family="Arial,Arial_MSFontService,sans-serif" font-weight="400" font-size="20" transform="matrix(1.00088 0 0 1 23.4604 20)">natural</text><text font-family="Arial,Arial_MSFontService,sans-serif" font-weight="400" font-size="20" transform="matrix(1.00088 0 0 1 117.543 20)">i</text><text font-family="Arial,Arial_MSFontService,sans-serif" font-weight="400" font-size="20" transform="matrix(1.00088 0 0 1 121.547 20)">_</text><text font-family="Arial,Arial_MSFontService,sans-serif" font-weight="400" font-size="20" transform="matrix(1.00088 0 0 1 132.556 20)">data</text><text font-family="Arial,Arial_MSFontService,sans-serif" font-weight="400" font-size="20" transform="matrix(1.00088 0 0 1 171.59 20)">_</text><text font-family="Arial,Arial_MSFontService,sans-serif" font-weight="400" font-size="20" transform="matrix(1.00088 0 0 1 182.6 20)">width</text><path d="M135 15 150 15" stroke="#000000" stroke-width="5" fill="none" transform="matrix(1.00088 0 0 1 -47.602 0)"/><path d="M150 35 336.667 35 336.667 105 150 105Z" transform="matrix(1.00088 0 0 1 -47.602 0)"/><path d="M152 37 334.667 37 334.667 102 152 102Z" fill="#FDFD96" transform="matrix(1.00088 0 0 1 -47.602 0)"/><text font-family="Arial,Arial_MSFontService,sans-serif" font-weight="400" font-size="20" transform="matrix(1.00088 0 0 1 4.44372 55)">std</text><text font-family="Arial,Arial_MSFontService,sans-serif" font-weight="400" font-size="20" transform="matrix(1.00088 0 0 1 31.4674 55)">_</text><text font-family="Arial,Arial_MSFontService,sans-serif" font-weight="400" font-size="20" transform="matrix(1.00088 0 0 1 42.4771 55)">logic</text><text font-family="Arial,Arial_MSFontService,sans-serif" font-weight="400" font-size="20" transform="matrix(1.00088 0 0 1 117.543 55)">clk</text><path d="M135 50 150 50" stroke="#000000" stroke-width="5" fill="none" transform="matrix(1.00088 0 0 1 -47.602 0)"/><text font-family="Arial,Arial_MSFontService,sans-serif" font-weight="400" font-size="20" transform="matrix(1.00088 0 0 1 4.44372 75)">std</text><text font-family="Arial,Arial_MSFontService,sans-serif" font-weight="400" font-size="20" transform="matrix(1.00088 0 0 1 31.4674 75)">_</text><text font-family="Arial,Arial_MSFontService,sans-serif" font-weight="400" font-size="20" transform="matrix(1.00088 0 0 1 42.4771 75)">logic</text><text font-family="Arial,Arial_MSFontService,sans-serif" font-weight="400" font-size="20" transform="matrix(1.00088 0 0 1 117.543 75)">reset</text><path d="M135 70 150 70" stroke="#000000" stroke-width="5" fill="none" transform="matrix(1.00088 0 0 1 -47.602 0)"/><text font-family="Arial,Arial_MSFontService,sans-serif" font-weight="400" font-size="20" transform="matrix(1.00088 0 0 1 16.4543 95)">channel</text><text font-family="Arial,Arial_MSFontService,sans-serif" font-weight="400" font-size="20" transform="matrix(1.00088 0 0 1 117.543 95)">iRgb</text><path d="M135 90 150 90" stroke="#000000" stroke-width="5" fill="none" transform="matrix(1.00088 0 0 1 -47.602 0)"/><text font-family="Arial,Arial_MSFontService,sans-serif" font-weight="400" font-size="20" transform="matrix(1.00088 0 0 1 309.378 55)">channel</text><text font-family="Arial,Arial_MSFontService,sans-serif" font-weight="400" font-size="20" transform="matrix(1.00088 0 0 1 236.314 55)">oHsl</text><path d="M336.667 50 351.667 50" stroke="#000000" stroke-width="5" fill="none" transform="matrix(1.00088 0 0 1 -47.602 0)"/></g></svg>