<svg width="591" height="171" xmlns="http://www.w3.org/2000/svg" xmlns:xlink="http://www.w3.org/1999/xlink" xml:space="preserve" overflow="hidden"><defs><clipPath id="clip0"><rect x="0" y="0" width="591" height="171"/></clipPath></defs><g clip-path="url(#clip0)"><path d="M233.182 0 523.364 0 523.364 46.6364 233.182 46.6364Z" transform="matrix(1.00134 0 0 1 -74.0336 0)"/><path d="M236.291 3.10909 520.255 3.10909 520.255 41.9727 236.291 41.9727Z" fill="#BDECB6" transform="matrix(1.00134 0 0 1 -74.0336 0)"/><text font-family="Arial,Arial_MSFontService,sans-serif" font-weight="400" font-size="20" transform="matrix(1.55663 0 0 1.55455 36.4871 32)">natural</text><text font-family="Arial,Arial_MSFontService,sans-serif" font-weight="400" font-size="20" transform="matrix(1.55663 0 0 1.55455 182.81 32)">i</text><text font-family="Arial,Arial_MSFontService,sans-serif" font-weight="400" font-size="20" transform="matrix(1.55663 0 0 1.55455 189.037 32)">_</text><text font-family="Arial,Arial_MSFontService,sans-serif" font-weight="400" font-size="20" transform="matrix(1.55663 0 0 1.55455 206.16 32)">data</text><text font-family="Arial,Arial_MSFontService,sans-serif" font-weight="400" font-size="20" transform="matrix(1.55663 0 0 1.55455 266.868 32)">_</text><text font-family="Arial,Arial_MSFontService,sans-serif" font-weight="400" font-size="20" transform="matrix(1.55663 0 0 1.55455 283.991 32)">width</text><path d="M209.864 23.3182 233.182 23.3182" stroke="#000000" stroke-width="7.77273" fill="none" transform="matrix(1.00134 0 0 1 -74.0336 0)"/><path d="M233.182 54.4091 523.364 54.4091 523.364 163.227 233.182 163.227Z" transform="matrix(1.00134 0 0 1 -74.0336 0)"/><path d="M236.291 57.5182 520.255 57.5182 520.255 158.564 236.291 158.564Z" fill="#FDFD96" transform="matrix(1.00134 0 0 1 -74.0336 0)"/><text font-family="Arial,Arial_MSFontService,sans-serif" font-weight="400" font-size="20" transform="matrix(1.55663 0 0 1.55455 6.91116 86)">std</text><text font-family="Arial,Arial_MSFontService,sans-serif" font-weight="400" font-size="20" transform="matrix(1.55663 0 0 1.55455 48.9402 86)">_</text><text font-family="Arial,Arial_MSFontService,sans-serif" font-weight="400" font-size="20" transform="matrix(1.55663 0 0 1.55455 66.0631 86)">logic</text><text font-family="Arial,Arial_MSFontService,sans-serif" font-weight="400" font-size="20" transform="matrix(1.55663 0 0 1.55455 182.81 86)">clk</text><path d="M209.864 77.7273 233.182 77.7273" stroke="#000000" stroke-width="7.77273" fill="none" transform="matrix(1.00134 0 0 1 -74.0336 0)"/><text font-family="Arial,Arial_MSFontService,sans-serif" font-weight="400" font-size="20" transform="matrix(1.55663 0 0 1.55455 6.91116 117)">std</text><text font-family="Arial,Arial_MSFontService,sans-serif" font-weight="400" font-size="20" transform="matrix(1.55663 0 0 1.55455 48.9402 117)">_</text><text font-family="Arial,Arial_MSFontService,sans-serif" font-weight="400" font-size="20" transform="matrix(1.55663 0 0 1.55455 66.0631 117)">logic</text><text font-family="Arial,Arial_MSFontService,sans-serif" font-weight="400" font-size="20" transform="matrix(1.55663 0 0 1.55455 182.81 117)">reset</text><path d="M209.864 108.818 233.182 108.818" stroke="#000000" stroke-width="7.77273" fill="none" transform="matrix(1.00134 0 0 1 -74.0336 0)"/><text font-family="Arial,Arial_MSFontService,sans-serif" font-weight="400" font-size="20" transform="matrix(1.55663 0 0 1.55455 25.5907 148)">channel</text><text font-family="Arial,Arial_MSFontService,sans-serif" font-weight="400" font-size="20" transform="matrix(1.55663 0 0 1.55455 182.81 148)">iRgb</text><path d="M209.864 139.909 233.182 139.909" stroke="#000000" stroke-width="7.77273" fill="none" transform="matrix(1.00134 0 0 1 -74.0336 0)"/><text font-family="Arial,Arial_MSFontService,sans-serif" font-weight="400" font-size="20" transform="matrix(1.55663 0 0 1.55455 481.165 86)">channel</text><text font-family="Arial,Arial_MSFontService,sans-serif" font-weight="400" font-size="20" transform="matrix(1.55663 0 0 1.55455 367.531 86)">oHsl</text><path d="M523.364 77.7273 546.682 77.7273" stroke="#000000" stroke-width="7.77273" fill="none" transform="matrix(1.00134 0 0 1 -74.0336 0)"/></g></svg>